<svg width="22" height="22" viewBox="0 0 22 22" fill="none" xmlns="http://www.w3.org/2000/svg">
<g clip-path="url(#clip0)">
<path d="M20.3524 3.79309H1.64764C0.737645 3.79309 0 4.53074 0 5.44073V8.59768H22V5.44073C22 4.53074 21.2624 3.79309 20.3524 3.79309Z" fill="#FAB446"/>
<path d="M0 16.5593C0 17.4693 0.737645 18.2069 1.64764 18.2069H20.3524C21.2623 18.2069 22 17.4693 22 16.5593V13.4023H0V16.5593Z" fill="#73AF00"/>
<path d="M11.0001 11.2312C11.1278 11.2312 11.2312 11.1277 11.2312 11C11.2312 10.8724 11.1278 10.7689 11.0001 10.7689C10.8725 10.7689 10.769 10.8724 10.769 11C10.769 11.1277 10.8725 11.2312 11.0001 11.2312Z" fill="#41479B"/>
<path d="M11 11.0347L10.4126 11.094L9.15088 11.0347V10.9654L10.4126 10.9061L11 10.9654V11.0347Z" fill="#41479B"/>
<path d="M11 11.0347L11.5874 11.094L12.8491 11.0347V10.9654L11.5874 10.9061L11 10.9654V11.0347Z" fill="#41479B"/>
<path d="M10.9654 11L10.9061 10.4126L10.9654 9.15088H11.0347L11.094 10.4126L11.0347 11H10.9654Z" fill="#41479B"/>
<path d="M10.9654 11L10.9061 11.5874L10.9654 12.8491H11.0347L11.094 11.5874L11.0347 11H10.9654Z" fill="#41479B"/>
<path d="M10.9755 11.0245L10.5182 10.6511L9.66797 9.717L9.717 9.66797L10.6511 10.5182L11.0245 10.9755L10.9755 11.0245Z" fill="#41479B"/>
<path d="M10.9755 11.0245L11.3489 11.4818L12.283 12.332L12.332 12.283L11.4818 11.3489L11.0245 10.9755L10.9755 11.0245Z" fill="#41479B"/>
<path d="M10.9755 10.9755L11.3489 10.5182L12.283 9.66797L12.332 9.717L11.4818 10.6511L11.0245 11.0245L10.9755 10.9755Z" fill="#41479B"/>
<path d="M10.9755 10.9755L10.5182 11.3489L9.66797 12.283L9.717 12.332L10.6511 11.4818L11.0245 11.0245L10.9755 10.9755Z" fill="#41479B"/>
<path d="M11.0134 11.032L10.4934 11.3116L9.305 11.7396L9.27844 11.6755L10.4215 11.1379L10.9868 10.9679L11.0134 11.032Z" fill="#41479B"/>
<path d="M11.0134 11.032L11.5787 10.862L12.7218 10.3244L12.6952 10.2603L11.5068 10.6883L10.9868 10.9679L11.0134 11.032Z" fill="#41479B"/>
<path d="M10.9679 11.0133L10.6883 10.4933L10.2603 9.30494L10.3244 9.27838L10.862 10.4214L11.032 10.9868L10.9679 11.0133Z" fill="#41479B"/>
<path d="M10.9679 11.0133L11.1379 11.5787L11.6755 12.7217L11.7396 12.6951L11.3116 11.5068L11.032 10.9868L10.9679 11.0133Z" fill="#41479B"/>
<path d="M10.9868 11.032L10.4215 10.862L9.27844 10.3244L9.305 10.2603L10.4934 10.6883L11.0134 10.9679L10.9868 11.032Z" fill="#41479B"/>
<path d="M10.9868 11.032L11.5068 11.3116L12.6952 11.7396L12.7218 11.6755L11.5787 11.1379L11.0134 10.9679L10.9868 11.032Z" fill="#41479B"/>
<path d="M10.9679 10.9868L11.1379 10.4214L11.6755 9.27838L11.7396 9.30494L11.3116 10.4933L11.032 11.0133L10.9679 10.9868Z" fill="#41479B"/>
<path d="M10.9679 10.9868L10.6883 11.5068L10.2603 12.6951L10.3244 12.7217L10.862 11.5787L11.032 11.0133L10.9679 10.9868Z" fill="#41479B"/>
<path d="M10.9999 11.3117C11.1721 11.3117 11.3117 11.1721 11.3117 10.9999C11.3117 10.8278 11.1721 10.6882 10.9999 10.6882C10.8278 10.6882 10.6882 10.8278 10.6882 10.9999C10.6882 11.1721 10.8278 11.3117 10.9999 11.3117Z" fill="#F5F5F5"/>
<path d="M11.0001 11.187C11.1033 11.187 11.187 11.1033 11.187 11.0001C11.187 10.8968 11.1033 10.8131 11.0001 10.8131C10.8968 10.8131 10.8131 10.8968 10.8131 11.0001C10.8131 11.1033 10.8968 11.187 11.0001 11.187Z" fill="#41479B"/>
</g>
<defs>
<clipPath id="clip0">
<rect width="22" height="22" fill="white"/>
</clipPath>
</defs>
</svg>
